<?xml version="1.0" standalone="no"?>
<!DOCTYPE svg PUBLIC "-//W3C//DTD SVG 20010904//EN"
 "http://www.w3.org/TR/2001/REC-SVG-20010904/DTD/svg10.dtd">
<svg version="1.0" xmlns="http://www.w3.org/2000/svg"
 width="2133.000000pt" height="2133.000000pt" viewBox="0 0 2133.000000 2133.000000"
 preserveAspectRatio="xMidYMid meet">
<metadata>
Created by potrace 1.11, written by Peter Selinger 2001-2013
</metadata>
<g transform="translate(0.000000,2133.000000) scale(0.100000,-0.100000)"
fill="#000000" stroke="none">
<path d="M16340 21315 c-103 -33 -175 -86 -238 -178 -78 -113 -84 -312 -14
-427 69 -112 166 -182 284 -206 18 -4 389 -8 823 -9 435 -2 794 -3 798 -4 5 0
-915 -925 -2045 -2055 l-2053 -2054 -800 798 c-883 880 -839 843 -994 870 -79
13 -161 0 -251 -43 -35 -16 -912 -887 -3828 -3801 -2081 -2080 -3796 -3799
-3811 -3822 -151 -220 -56 -527 194 -625 48 -19 56 -21 136 -24 106 -5 184 18
261 77 20 16 1657 1649 3637 3628 1979 1980 3601 3600 3604 3600 2 0 364 -359
803 -798 692 -690 807 -801 857 -825 124 -60 263 -58 392 5 27 13 774 754
2271 2250 l2231 2230 0 -719 c0 -786 1 -794 58 -892 81 -137 221 -214 378
-207 199 10 355 143 390 333 19 99 16 2538 -2 2603 -42 148 -152 257 -296 294
-52 14 -219 16 -1400 15 -1118 0 -1347 -3 -1385 -14z"/>
<path d="M16143 15213 c-54 -6 -110 -16 -125 -22 -16 -6 -28 -8 -28 -6 0 10
-179 -59 -240 -92 -217 -118 -391 -300 -494 -517 -34 -71 -74 -194 -92 -281
-4 -22 -9 -3055 -11 -6740 -2 -3685 -5 -6705 -7 -6710 -2 -7 -396 -10 -1157
-10 l-1154 0 -1 3668 c-1 2018 -5 3687 -8 3710 -4 23 -10 60 -13 82 -19 133
-107 334 -205 465 -165 222 -396 367 -698 436 -51 12 -2343 15 -2411 4 -99
-17 -231 -60 -326 -106 -343 -168 -586 -518 -619 -890 -3 -38 -7 -1711 -8
-3719 l-1 -3650 -1154 0 c-762 0 -1155 3 -1157 10 -2 5 -5 890 -7 1965 l-3
1955 -22 82 c-43 164 -114 311 -212 438 -46 61 -176 180 -248 229 -143 97
-261 146 -436 181 -71 15 -252 18 -1231 17 -752 0 -1121 -3 -1165 -11 -111
-19 -123 -22 -196 -46 -396 -133 -686 -473 -755 -885 -10 -58 -13 -505 -15
-1995 -1 -1056 -2 -1924 -3 -1930 -1 -7 -180 -10 -514 -11 -501 0 -513 -1
-577 -22 -238 -81 -349 -347 -241 -577 48 -102 132 -176 245 -215 l59 -20
9771 2 9771 3 68 33 c151 74 242 218 239 382 -2 187 -111 335 -292 395 -50 17
-97 19 -540 21 -267 1 -487 2 -490 3 -3 0 -5 3004 -5 6674 -1 5369 -3 6688
-14 6752 -50 315 -222 588 -481 765 -149 102 -345 171 -525 187 -135 11 -2174
8 -2272 -4z m2284 -852 c58 -26 123 -90 150 -148 16 -36 17 -385 18 -6708 l0
-6670 -1302 0 c-1152 0 -1303 2 -1304 15 -1 8 -2 2996 -3 6640 -2 5463 0 6634
11 6678 27 109 121 197 228 214 10 2 499 3 1085 2 l1065 0 52 -23z m-6612
-6006 c65 -28 118 -79 150 -141 l30 -59 0 -3645 c1 -2005 -1 -3652 -3 -3660
-3 -13 -153 -15 -1295 -14 -711 1 -1297 2 -1303 3 -8 1 -11 1004 -10 3659 l1
3657 29 58 c43 85 110 137 199 156 16 3 509 6 1095 5 994 -1 1070 -2 1107 -19z
m-6630 -3487 c81 -24 165 -104 192 -181 16 -49 17 -167 18 -1937 1 -1037 -1
-1892 -3 -1900 -3 -13 -155 -15 -1308 -15 l-1304 0 0 1896 c0 2124 -6 1955 73
2045 42 47 77 70 142 89 30 10 295 12 1105 11 586 -2 1074 -5 1085 -8z"/>
<path d="M3095 9108 c-73 -13 -82 -16 -131 -41 -177 -90 -268 -295 -214 -487
48 -174 212 -300 390 -301 178 -1 312 82 388 240 58 121 53 258 -14 381 -46
84 -146 166 -239 194 -46 13 -143 21 -180 14z"/>
</g>
</svg>
